# xmcd
#
# Track frame offsets: 
#        150
#        18647
#        43815
#        60382
#        80560
#        94357
#        115625
#        140282
#        158852
#        179947
#        206728
#
# Disc length: 3783 seconds
#
# Revision: 2
# Processed by: cddbd v1.5.2PL0 Copyright (c) Steve Scherf et al.
# Submitted via: ExactAudioCopy v1.0b2
#
DISCID=9c0ec50b
DTITLE=Roomful of Blues - Turn It On! Turn It Up!
DYEAR=1995
DGENRE=Blues
TTITLE0=Blind Love
TTITLE1=I Left My Baby
TTITLE2=Turn It On! Turn It Up!
TTITLE3=Angry Woman
TTITLE4=If You Know It
TTITLE5=Slam Jam
TTITLE6=Danger Zone
TTITLE7=Gettin' Out
TTITLE8=One Bayou Drive
TTITLE9=Marie, Marie
TTITLE10=Data Track
EXTD=
EXTT0=
EXTT1=
EXTT2=
EXTT3=
EXTT4=
EXTT5=
EXTT6=
EXTT7=
EXTT8=
EXTT9=
EXTT10=
PLAYORDER=
